<svg width="960" height="960" viewBox="0 0 960 960" fill="none" xmlns="http://www.w3.org/2000/svg">
<rect width="960" height="960" fill="white"/>
<rect x="175" y="489.509" width="84.1379" height="84.1379" fill="#FA3C69"/>
<rect x="280.172" y="489.509" width="84.1379" height="84.1379" fill="#F98864"/>
<rect x="385.345" y="489.509" width="84.1379" height="84.1379" fill="#FAC846"/>
<rect x="490.517" y="489.509" width="84.1379" height="84.1379" fill="#65DB7F"/>
<rect x="700.862" y="489.509" width="84.1379" height="84.1379" fill="#A95DE5"/>
<rect x="595.69" y="489.509" width="84.1379" height="84.1379" fill="#7386E9"/>
<path d="M287.836 407V348.12H303.196C321.276 348.12 331.516 358.12 331.516 377.32C331.516 396.52 321.276 407 303.676 407H287.836ZM297.196 399.4H302.476C315.116 399.4 321.996 391.96 321.996 377.32C321.996 362.68 315.116 355.64 302.476 355.64H297.196V399.4ZM342.974 407V363H350.494L351.294 370.92H351.534C354.654 365.24 359.294 361.88 364.014 361.88C366.174 361.88 367.534 362.2 368.894 362.84L367.294 370.84C365.774 370.36 364.654 370.12 362.814 370.12C359.294 370.12 354.974 372.68 352.254 379.64V407H342.974ZM388.668 408.12C379.308 408.12 375.148 401.88 375.148 390.68V363H384.348V389.56C384.348 397.16 386.588 400.12 391.788 400.12C395.868 400.12 398.668 398.2 402.348 393.56V363H411.548V407H403.948L403.228 400.36H402.988C398.988 405 394.748 408.12 388.668 408.12ZM440.438 426.76C429.878 426.76 422.198 422.84 422.198 415.24C422.198 411.48 424.518 408.04 428.598 405.64V405.24C426.278 403.8 424.598 401.48 424.598 397.88C424.598 394.44 426.998 391.48 429.478 389.72V389.4C426.518 387.16 423.638 382.92 423.638 377.72C423.638 367.72 431.638 361.88 440.678 361.88C443.238 361.88 445.478 362.36 447.158 363H462.678V369.96H454.358C456.038 371.72 457.238 374.6 457.238 377.96C457.238 387.64 449.958 393.08 440.678 393.08C438.758 393.08 436.518 392.68 434.518 391.8C433.158 393 432.118 394.28 432.118 396.44C432.118 399 433.958 400.68 439.478 400.68H447.638C458.038 400.68 463.478 403.88 463.478 411.4C463.478 419.88 454.518 426.76 440.438 426.76ZM440.678 387.16C445.238 387.16 448.998 383.56 448.998 377.72C448.998 371.8 445.318 368.44 440.678 368.44C436.118 368.44 432.438 371.8 432.438 377.72C432.438 383.56 436.198 387.16 440.678 387.16ZM441.798 420.68C449.478 420.68 454.518 416.92 454.518 412.92C454.518 409.24 451.638 408.04 446.278 408.04H439.638C437.558 408.04 435.638 407.88 433.798 407.4C431.158 409.4 430.038 411.64 430.038 413.88C430.038 418.12 434.518 420.68 441.798 420.68ZM471.568 424.84V363H479.088L479.888 367.88H480.128C483.968 364.6 488.688 361.88 493.648 361.88C504.768 361.88 511.088 370.76 511.088 384.36C511.088 399.4 502.048 408.12 492.128 408.12C488.208 408.12 484.208 406.36 480.528 403.16L480.848 410.6V424.84H471.568ZM490.368 400.44C496.688 400.44 501.568 394.76 501.568 384.44C501.568 375.24 498.528 369.56 491.168 369.56C487.808 369.56 484.528 371.4 480.848 374.92V396.44C484.288 399.4 487.648 400.44 490.368 400.44ZM540.358 408.12C528.358 408.12 518.918 399.56 518.918 385.08C518.918 370.76 528.758 361.88 538.998 361.88C550.598 361.88 556.918 370.28 556.918 382.76C556.918 384.6 556.758 386.36 556.518 387.48H527.958C528.678 395.88 533.958 400.84 541.558 400.84C545.478 400.84 548.758 399.64 552.038 397.56L555.238 403.48C551.158 406.2 546.118 408.12 540.358 408.12ZM527.798 381.08H548.918C548.918 373.48 545.558 369.16 539.158 369.16C533.638 369.16 528.758 373.4 527.798 381.08ZM582.471 408.12C571.431 408.12 564.391 399.64 564.391 385.08C564.391 370.76 573.431 361.88 583.191 361.88C588.231 361.88 591.511 363.8 595.031 366.84L594.631 359.56V343.32H603.911V407H596.311L595.591 402.12H595.351C591.991 405.48 587.431 408.12 582.471 408.12ZM584.711 400.44C588.311 400.44 591.511 398.76 594.631 395.08V373.64C591.431 370.68 588.311 369.56 585.031 369.56C578.871 369.56 573.911 375.48 573.911 384.92C573.911 394.92 577.831 400.44 584.711 400.44ZM617.661 407V363H626.941V407H617.661ZM622.301 354.76C618.861 354.76 616.621 352.6 616.621 349.24C616.621 345.96 618.861 343.8 622.301 343.8C625.661 343.8 628.061 345.96 628.061 349.24C628.061 352.6 625.661 354.76 622.301 354.76ZM651.108 408.12C643.588 408.12 638.228 403.08 638.228 395.32C638.228 385.88 646.228 381 664.468 379C664.388 373.88 662.548 369.4 656.148 369.4C651.508 369.4 647.108 371.56 643.428 373.96L639.988 367.64C644.468 364.84 650.708 361.88 657.748 361.88C668.708 361.88 673.748 368.84 673.748 380.6V407H666.148L665.428 402.04H665.108C661.108 405.48 656.388 408.12 651.108 408.12ZM653.988 400.76C657.828 400.76 660.868 399 664.468 395.64V384.92C651.428 386.44 647.108 389.72 647.108 394.68C647.108 399 650.068 400.76 653.988 400.76Z" fill="black"/>
</svg>
