<svg width="77" height="79" viewBox="0 0 77 79" fill="none" xmlns="http://www.w3.org/2000/svg">
<path fill-rule="evenodd" clip-rule="evenodd" d="M44.2542 1.21396C42.1389 -0.561047 38.9851 -0.285128 37.2101 1.83025L1.21396 44.7287C-0.561047 46.8441 -0.285129 49.9979 1.83024 51.7729L32.5946 77.5872C34.71 79.3623 37.8637 79.0863 39.6388 76.971L75.6349 34.0725C77.4099 31.9571 77.1339 28.8033 75.0186 27.0283L44.2542 1.21396ZM73.0902 29.3265L42.3259 3.5121C41.4797 2.80209 40.2182 2.91246 39.5082 3.75861L39.2379 4.08068L73.0665 32.4662L73.3367 32.1441C74.0467 31.298 73.9364 30.0364 73.0902 29.3265ZM71.1381 34.7643L37.3096 6.37881L8.67849 40.5L66 40.5C66.1028 40.5 66.2031 40.5104 66.3001 40.53L71.1381 34.7643ZM3.5121 46.6571L6.1612 43.5L63.808 43.5L37.3406 75.0426C36.6306 75.8887 35.3691 75.9991 34.523 75.2891L3.75861 49.4748C2.91246 48.7648 2.80209 47.5032 3.5121 46.6571Z" fill="#FEFEFE"/>
<path d="M6.1612 43.5L3.5121 46.6571C2.80209 47.5032 2.91246 48.7648 3.75861 49.4748L34.523 75.2891C35.3691 75.9991 36.6306 75.8887 37.3406 75.0426L63.808 43.5L6.1612 43.5Z" fill="#FEFEFE"/>
</svg>
