<svg width="514" height="512" viewBox="0 0 514 512" fill="none" xmlns="http://www.w3.org/2000/svg">
<rect x="236" width="42" height="85" rx="21" fill="#FF5724"/>
<rect x="236" y="427" width="42" height="85" rx="21" fill="#FF5724" fill-opacity="0.52"/>
<rect x="512.998" y="234.979" width="42" height="85" rx="21" transform="rotate(89.9953 512.998 234.979)" fill="#FF5724" fill-opacity="0.76"/>
<rect x="85.9983" y="235.014" width="42" height="85" rx="21" transform="rotate(89.9953 85.9983 235.014)" fill="#FF5724" fill-opacity="0.28"/>
<rect x="24.7975" y="146.187" width="42" height="85" rx="21" transform="rotate(-60 24.7975 146.187)" fill="#FF5724" fill-opacity="0.2"/>
<rect x="394.59" y="359.687" width="42" height="85" rx="21" transform="rotate(-60 394.59 359.687)" fill="#FF5724" fill-opacity="0.68"/>
<rect x="366.794" y="23.7886" width="42" height="85" rx="21" transform="rotate(29.9953 366.794 23.7886)" fill="#FF5724" fill-opacity="0.92"/>
<rect x="153.325" y="393.599" width="42" height="85" rx="21" transform="rotate(29.9953 153.325 393.599)" fill="#FF5724" fill-opacity="0.44"/>
<rect x="110.813" y="44.7974" width="42" height="85" rx="21" transform="rotate(-30 110.813 44.7974)" fill="#FF5724" fill-opacity="0.12"/>
<rect x="324.313" y="414.59" width="42" height="85" rx="21" transform="rotate(-30 324.313 414.59)" fill="#FF5724" fill-opacity="0.6"/>
<rect x="468.191" y="109.796" width="42" height="85" rx="21" transform="rotate(59.9953 468.191 109.796)" fill="#FF5724" fill-opacity="0.84"/>
<rect x="98.4153" y="323.326" width="42" height="85" rx="21" transform="rotate(59.9953 98.4153 323.326)" fill="#FF5724" fill-opacity="0.36"/>
</svg>
