<svg width="610" height="260" viewBox="0 0 610 260" fill="none" xmlns="http://www.w3.org/2000/svg">
<rect y="175.509" width="84.1379" height="84.1379" rx="10" fill="#FA3C69"/>
<rect x="105.172" y="175.509" width="84.1379" height="84.1379" rx="10" fill="#F98864"/>
<rect x="210.345" y="175.509" width="84.1379" height="84.1379" rx="10" fill="#FAC846"/>
<rect x="315.517" y="175.509" width="84.1379" height="84.1379" rx="10" fill="#65DB7F"/>
<rect x="525.862" y="175.509" width="84.1379" height="84.1379" rx="10" fill="#A95DE5"/>
<rect x="420.689" y="175.509" width="84.1379" height="84.1379" rx="10" fill="#7386E9"/>
<path d="M112.836 93V34.12H128.196C146.276 34.12 156.516 44.12 156.516 63.32C156.516 82.52 146.276 93 128.676 93H112.836ZM122.196 85.4H127.476C140.116 85.4 146.996 77.96 146.996 63.32C146.996 48.68 140.116 41.64 127.476 41.64H122.196V85.4ZM167.974 93V49H175.494L176.294 56.92H176.534C179.654 51.24 184.294 47.88 189.014 47.88C191.174 47.88 192.534 48.2 193.894 48.84L192.294 56.84C190.774 56.36 189.654 56.12 187.814 56.12C184.294 56.12 179.974 58.68 177.254 65.64V93H167.974ZM213.668 94.12C204.308 94.12 200.148 87.88 200.148 76.68V49H209.348V75.56C209.348 83.16 211.588 86.12 216.788 86.12C220.868 86.12 223.668 84.2 227.348 79.56V49H236.548V93H228.948L228.228 86.36H227.988C223.988 91 219.748 94.12 213.668 94.12ZM265.438 112.76C254.878 112.76 247.198 108.84 247.198 101.24C247.198 97.48 249.518 94.04 253.598 91.64V91.24C251.278 89.8 249.598 87.48 249.598 83.88C249.598 80.44 251.998 77.48 254.478 75.72V75.4C251.518 73.16 248.638 68.92 248.638 63.72C248.638 53.72 256.638 47.88 265.678 47.88C268.238 47.88 270.478 48.36 272.158 49H287.678V55.96H279.358C281.038 57.72 282.238 60.6 282.238 63.96C282.238 73.64 274.958 79.08 265.678 79.08C263.758 79.08 261.518 78.68 259.518 77.8C258.158 79 257.118 80.28 257.118 82.44C257.118 85 258.958 86.68 264.478 86.68H272.638C283.038 86.68 288.478 89.88 288.478 97.4C288.478 105.88 279.518 112.76 265.438 112.76ZM265.678 73.16C270.238 73.16 273.998 69.56 273.998 63.72C273.998 57.8 270.318 54.44 265.678 54.44C261.118 54.44 257.438 57.8 257.438 63.72C257.438 69.56 261.198 73.16 265.678 73.16ZM266.798 106.68C274.478 106.68 279.518 102.92 279.518 98.92C279.518 95.24 276.638 94.04 271.278 94.04H264.638C262.558 94.04 260.638 93.88 258.798 93.4C256.158 95.4 255.038 97.64 255.038 99.88C255.038 104.12 259.518 106.68 266.798 106.68ZM296.568 110.84V49H304.088L304.888 53.88H305.128C308.968 50.6 313.688 47.88 318.648 47.88C329.768 47.88 336.088 56.76 336.088 70.36C336.088 85.4 327.048 94.12 317.128 94.12C313.208 94.12 309.208 92.36 305.528 89.16L305.848 96.6V110.84H296.568ZM315.368 86.44C321.688 86.44 326.568 80.76 326.568 70.44C326.568 61.24 323.528 55.56 316.168 55.56C312.808 55.56 309.528 57.4 305.848 60.92V82.44C309.288 85.4 312.648 86.44 315.368 86.44ZM365.358 94.12C353.358 94.12 343.918 85.56 343.918 71.08C343.918 56.76 353.758 47.88 363.998 47.88C375.598 47.88 381.918 56.28 381.918 68.76C381.918 70.6 381.758 72.36 381.518 73.48H352.958C353.678 81.88 358.958 86.84 366.558 86.84C370.478 86.84 373.758 85.64 377.038 83.56L380.238 89.48C376.158 92.2 371.118 94.12 365.358 94.12ZM352.798 67.08H373.918C373.918 59.48 370.558 55.16 364.158 55.16C358.638 55.16 353.758 59.4 352.798 67.08ZM407.471 94.12C396.431 94.12 389.391 85.64 389.391 71.08C389.391 56.76 398.431 47.88 408.191 47.88C413.231 47.88 416.511 49.8 420.031 52.84L419.631 45.56V29.32H428.911V93H421.311L420.591 88.12H420.351C416.991 91.48 412.431 94.12 407.471 94.12ZM409.711 86.44C413.311 86.44 416.511 84.76 419.631 81.08V59.64C416.431 56.68 413.311 55.56 410.031 55.56C403.871 55.56 398.911 61.48 398.911 70.92C398.911 80.92 402.831 86.44 409.711 86.44ZM442.661 93V49H451.941V93H442.661ZM447.301 40.76C443.861 40.76 441.621 38.6 441.621 35.24C441.621 31.96 443.861 29.8 447.301 29.8C450.661 29.8 453.061 31.96 453.061 35.24C453.061 38.6 450.661 40.76 447.301 40.76ZM476.108 94.12C468.588 94.12 463.228 89.08 463.228 81.32C463.228 71.88 471.228 67 489.468 65C489.388 59.88 487.548 55.4 481.148 55.4C476.508 55.4 472.108 57.56 468.428 59.96L464.988 53.64C469.468 50.84 475.708 47.88 482.748 47.88C493.708 47.88 498.748 54.84 498.748 66.6V93H491.148L490.428 88.04H490.108C486.108 91.48 481.388 94.12 476.108 94.12ZM478.988 86.76C482.828 86.76 485.868 85 489.468 81.64V70.92C476.428 72.44 472.108 75.72 472.108 80.68C472.108 85 475.068 86.76 478.988 86.76Z" fill="black"/>
</svg>
