<svg width="48" height="53" viewBox="0 0 48 53" fill="none" xmlns="http://www.w3.org/2000/svg">
<path d="M3.68 41V11.8H11.24C13.1333 11.8 14.76 12.16 16.12 12.88C17.5067 13.6 18.5733 14.6133 19.32 15.92C20.0933 17.2267 20.48 18.7733 20.48 20.56V32.2C20.48 33.9867 20.0933 35.5467 19.32 36.88C18.5733 38.1867 17.5067 39.2 16.12 39.92C14.76 40.64 13.1333 41 11.24 41H3.68ZM7.28 37.8H11.24C13 37.8 14.3733 37.3067 15.36 36.32C16.3733 35.3333 16.88 33.96 16.88 32.2V20.56C16.88 18.8267 16.3733 17.4667 15.36 16.48C14.3733 15.4933 13 15 11.24 15H7.28V37.8ZM27.6644 41V11.8H37.0644C38.8777 11.8 40.451 12.16 41.7844 12.88C43.1177 13.5733 44.1444 14.56 44.8644 15.84C45.611 17.12 45.9844 18.64 45.9844 20.4C45.9844 22.1333 45.611 23.6533 44.8644 24.96C44.1444 26.24 43.1177 27.24 41.7844 27.96C40.451 28.6533 38.8777 29 37.0644 29H31.2644V41H27.6644ZM31.2644 25.76H37.0644C38.6377 25.76 39.891 25.28 40.8244 24.32C41.7844 23.3333 42.2644 22.0267 42.2644 20.4C42.2644 18.7467 41.7844 17.44 40.8244 16.48C39.891 15.52 38.6377 15.04 37.0644 15.04H31.2644V25.76Z" fill="black"/>
</svg>
