<svg width="86" height="85" viewBox="0 0 86 85" fill="none" xmlns="http://www.w3.org/2000/svg">
<path d="M30.2926 7.82979H30.4362H34.6702H34.8137C35.5135 11.4365 38.6888 14.1596 42.5 14.1596C46.3113 14.1596 49.4865 11.4365 50.1863 7.82979H50.3298H54.5638H54.7074C55.4071 11.4365 58.5824 14.1596 62.3936 14.1596C66.2049 14.1596 69.3801 11.4365 70.0799 7.82979H70.2234H77.1702V14.8221V14.9582C73.6548 15.7286 71.024 18.86 71.024 22.6064C71.024 26.3527 73.6548 29.4842 77.1702 30.2546V30.3907V34.6924V34.8322C73.609 35.5677 70.9322 38.7212 70.9322 42.5C70.9322 46.2788 73.609 49.4323 77.1702 50.1678V50.3076V54.5638V54.7074C73.5635 55.4071 70.8404 58.5824 70.8404 62.3936C70.8404 66.2048 73.5635 69.3801 77.1702 70.0799V70.2234V77.1702H70.2234H70.0799C69.3801 73.5635 66.2049 70.8404 62.3936 70.8404C58.5824 70.8404 55.4071 73.5635 54.7074 77.1702H54.5638H50.3298H50.1863C49.4865 73.5635 46.3113 70.8404 42.5 70.8404C38.6888 70.8404 35.5135 73.5635 34.8137 77.1702H34.6702H30.4362H30.2926C29.5929 73.5635 26.4176 70.8404 22.6064 70.8404C18.7951 70.8404 15.6199 73.5635 14.9201 77.1702H14.7766H7.82979V70.2234V70.0799C11.4365 69.3801 14.1596 66.2048 14.1596 62.3936C14.1596 58.5824 11.4365 55.4071 7.82979 54.7074V54.5638V50.3506V50.2035C11.482 49.5402 14.2514 46.3435 14.2514 42.5C14.2514 38.6565 11.482 35.4598 7.82979 34.7965V34.6494V30.4768V30.326C11.5273 29.7 14.3431 26.482 14.3431 22.6064C14.3431 18.7308 11.5273 15.5128 7.82979 14.8868V14.7359V7.82979H14.7766H14.9201C15.6199 11.4365 18.7951 14.1596 22.6064 14.1596C26.4176 14.1596 29.5929 11.4365 30.2926 7.82979ZM7.82979 48.8291H6.51418H7.82979Z" stroke="#FEFEFE" stroke-width="3"/>
<circle cx="43.5" cy="42.5" r="21" stroke="#FEFEFE" stroke-width="3"/>
<path d="M48.4853 40.4852L56.9706 31.9999" stroke="#FEFEFE" stroke-width="3" stroke-linecap="round"/>
<path d="M48.4853 32L56.9706 40.4853" stroke="#FEFEFE" stroke-width="3" stroke-linecap="round"/>
<path d="M30 40.4852L38.4853 31.9999" stroke="#FEFEFE" stroke-width="3" stroke-linecap="round"/>
<path d="M30 32L38.4853 40.4853" stroke="#FEFEFE" stroke-width="3" stroke-linecap="round"/>
<path d="M37 53H51" stroke="#FEFEFE" stroke-width="3" stroke-linecap="round"/>
</svg>
