<svg width="78" height="83" viewBox="0 0 78 83" fill="none" xmlns="http://www.w3.org/2000/svg">
<circle cx="18" cy="23" r="16.5" stroke="#FEFEFE" stroke-width="3"/>
<path d="M10.2642 15.4545H14.0568L18.0625 25.2273H18.233L22.2386 15.4545H26.0312V30H23.0483V20.5327H22.9276L19.1634 29.929H17.1321L13.3679 20.4972H13.2472V30H10.2642V15.4545Z" fill="#FEFEFE"/>
<circle cx="20" cy="56" r="16.5" stroke="#FEFEFE" stroke-width="3"/>
<path d="M12.2642 48.4545H16.0568L20.0625 58.2273H20.233L24.2386 48.4545H28.0312V63H25.0483V53.5327H24.9276L21.1634 62.929H19.1321L15.3679 53.4972H15.2472V63H12.2642V48.4545Z" fill="#FEFEFE"/>
<circle cx="52.9885" cy="57.9885" r="16.5" transform="rotate(34.0043 52.9885 57.9885)" stroke="#FEFEFE" stroke-width="3"/>
<path d="M46.3972 61.9858L43.6652 60.1428L55.9625 50.8928L59.2479 53.1092L55.27 67.9715L52.5381 66.1285L55.7934 54.7883L55.6992 54.7247L46.3972 61.9858ZM49.4239 57.1309L55.8768 61.4842L54.5343 63.4743L48.0813 59.121L49.4239 57.1309Z" fill="#FEFEFE"/>
<circle cx="52.2121" cy="21.2121" r="16.5" transform="rotate(11.4384 52.2121 21.2121)" stroke="#FEFEFE" stroke-width="3"/>
<path d="M50.2559 27.9582L45.2021 26.9356L48.0866 12.679L53.1822 13.71C54.6162 14.0002 55.7929 14.5354 56.7124 15.3156C57.6327 16.0912 58.2638 17.0667 58.6057 18.2421C58.9522 19.4184 58.9757 20.7468 58.6761 22.2272C58.3757 23.7123 57.8367 24.9317 57.0592 25.8855C56.2863 26.8402 55.32 27.4973 54.1604 27.8569C53.0053 28.2174 51.7038 28.2511 50.2559 27.9582ZM48.7388 24.9629L50.6531 25.3502C51.5442 25.5305 52.3256 25.5243 52.9974 25.3318C53.6748 25.1355 54.2342 24.7342 54.6757 24.1279C55.1228 23.5179 55.4539 22.6815 55.6689 21.6188C55.882 20.5653 55.9008 19.673 55.725 18.9418C55.554 18.2116 55.1964 17.6271 54.6523 17.1886C54.1082 16.75 53.3906 16.4405 52.4996 16.2603L50.5783 15.8715L48.7388 24.9629Z" fill="#FEFEFE"/>
</svg>
