<svg width="67" height="83" viewBox="0 0 67 83" fill="none" xmlns="http://www.w3.org/2000/svg">
<path fill-rule="evenodd" clip-rule="evenodd" d="M38.1202 1.1577C37.5298 0.602051 36.6047 0.616063 36.0315 1.18934L18.6104 18.6104C18.2971 18.9237 18.1383 19.3595 18.1767 19.801L20.2514 43.6594L20.0682 42.3312C19.9963 41.8101 19.6567 41.3647 19.1731 41.1574L11.5514 37.891C10.958 37.6367 10.2684 37.7906 9.83942 38.2732L1.12891 48.0725C0.780717 48.4642 0.662224 49.0093 0.816353 49.5102L9.52687 77.8194C9.6357 78.1731 9.87146 78.4741 10.1888 78.6645L15.6329 81.9309C16.2231 82.285 16.9786 82.192 17.4653 81.7053L23.9982 75.1724C24.3302 74.8404 24.4876 74.372 24.4234 73.9068L24.1395 71.8487L31.7491 78.5071C32.1376 78.847 32.6735 78.9633 33.1679 78.8149L43.714 75.6511L45.4987 80.1129C45.7937 80.8503 46.6123 81.23 47.3658 80.9789L53.8987 78.8012C54.2668 78.6785 54.573 78.4179 54.7531 78.0742L66.73 55.2091C66.9538 54.782 66.9585 54.2735 66.7429 53.8423L62.3877 45.1318C62.2047 44.7658 61.8802 44.4905 61.4894 44.3696C61.0985 44.2487 60.6752 44.2927 60.3176 44.4913L50.5182 49.9354C50.5033 49.9437 50.4886 49.9522 50.4741 49.961L57.0669 19.9933C57.1804 19.4778 57.0144 18.9405 56.63 18.5787L38.1202 1.1577ZM53.5207 22.1502L42.3495 72.9284L34.4227 75.3064L38.5074 28.3322L53.5207 22.1502ZM35.5045 28.2354L31.4987 74.3017L25.4684 69.0252L21.3843 22.0578L35.5045 28.2354ZM35.5921 24.9992L22.2858 19.1777L35.5921 5.87132V24.9992ZM38.5921 25.0529V5.72164L52.8804 19.1695L38.5921 25.0529ZM46.9392 75.6364L46.297 74.0308L51.9887 54.1099L54.912 57.0333L46.9392 75.6364ZM56.1429 54.0215L53.7135 51.5921L58.0864 49.1628L56.1429 54.0215ZM59.173 54.524L61.1982 49.461L63.2234 53.5114L59.173 54.524ZM57.7764 57.9655L62.5209 56.7794L52.3762 76.1464L49.586 77.0765L57.7764 57.9655ZM5.06648 48.1583L9.78031 42.8553L10.3695 49.3368L5.06648 48.1583ZM17.4516 77.4764L13.6249 51.646L17.5945 46.3531L21.3497 73.5783L17.4516 77.4764ZM12.6822 41.6395L16.2371 43.163L13.19 47.2258L12.6822 41.6395ZM10.7168 52.4871L14.4559 77.7261L12.2252 76.3877L4.4421 51.0928L10.7168 52.4871Z" fill="#FEFEFE"/>
</svg>
