<svg width="65" height="78" viewBox="0 0 65 78" fill="none" xmlns="http://www.w3.org/2000/svg">
<path d="M32.17 52.5548C31.5354 51.4464 30.9496 49.8827 30.442 47.9315C29.6958 45.0635 29.1898 41.6579 28.8496 38.3601C28.5102 35.0708 28.3401 31.9312 28.2549 29.611C28.2124 28.4519 28.1911 27.4999 28.1805 26.8391C28.1752 26.5087 28.1726 26.2513 28.1713 26.0773C28.1706 25.9903 28.1703 25.9241 28.1701 25.8802L28.17 25.8311L28.17 25.8194L28.17 25.8168L28.17 25.8165L28.17 25.8164L28.17 25.8163L28.17 25.8147L28.17 25.8064L28.1701 25.7701C28.1703 25.7373 28.1706 25.6874 28.1713 25.6212C28.1725 25.4889 28.1752 25.2918 28.1804 25.0372C28.1909 24.5279 28.212 23.7889 28.2543 22.8781C28.339 21.0547 28.5083 18.5516 28.8461 15.8288C29.1844 13.1015 29.6883 10.1819 30.4347 7.51621C30.9205 5.78134 31.4966 4.19987 32.17 2.86436C32.8434 4.19987 33.4195 5.78134 33.9052 7.51621C34.6516 10.1819 35.1556 13.1015 35.4939 15.8288C35.8317 18.5516 36.001 21.0547 36.0857 22.8781C36.128 23.7889 36.1491 24.5279 36.1596 25.0372C36.1648 25.2918 36.1674 25.4889 36.1687 25.6212C36.1694 25.6874 36.1697 25.7373 36.1698 25.7701L36.17 25.8064L36.17 25.8147L36.17 25.8163V25.8164V25.8165V25.8168L36.17 25.8194L36.17 25.8311L36.1698 25.8802C36.1697 25.9241 36.1693 25.9903 36.1687 26.0773C36.1674 26.2513 36.1647 26.5087 36.1594 26.8391C36.1488 27.4999 36.1276 28.4519 36.0851 29.611C35.9999 31.9312 35.8297 35.0708 35.4904 38.3601C35.1502 41.6579 34.6442 45.0635 33.898 47.9315C33.3903 49.8827 32.8046 51.4464 32.17 52.5548Z" stroke="#FEFEFE" stroke-width="3"/>
<path d="M17.5302 37.0425L17.5297 37.0417L17.5265 37.0361L17.5121 37.0109C17.499 36.988 17.479 36.9528 17.4526 36.9061C17.3999 36.8127 17.3216 36.6728 17.2217 36.4912C17.0217 36.1278 16.7355 35.5976 16.3941 34.9373C15.7104 33.615 14.8096 31.7786 13.9385 29.7193C13.0656 27.6558 12.2337 25.3945 11.6766 23.218C11.369 22.0165 11.154 20.8737 11.0541 19.8255C11.9119 20.4361 12.794 21.1938 13.6808 22.0609C15.2871 23.6316 16.8295 25.4827 18.1801 27.2704C19.528 29.0545 20.6679 30.7527 21.4712 32.006C21.8724 32.6318 22.1884 33.1448 22.4031 33.4996C22.5105 33.677 22.5925 33.8147 22.647 33.9071C22.6743 33.9533 22.6947 33.9882 22.708 34.011L22.7226 34.0361L22.7259 34.0417L22.7263 34.0425L22.7265 34.0427L22.7265 34.0428L22.7265 34.0428L22.7275 34.0445L22.7322 34.0526L22.7519 34.087C22.7696 34.1179 22.7963 34.1646 22.8312 34.2262C22.9011 34.3494 23.0042 34.5322 23.1352 34.7678C23.3972 35.239 23.7707 35.9205 24.2137 36.7573C25.1008 38.4328 26.2617 40.7214 27.3637 43.1837C28.4691 45.6538 29.4976 48.2598 30.1369 50.5782C30.5055 51.915 30.716 53.0596 30.7762 53.9852C30.0047 53.4703 29.1186 52.7157 28.1452 51.7281C26.4571 50.0152 24.7145 47.8216 23.1281 45.6292C21.5466 43.4436 20.1451 41.294 19.1376 39.688C18.6344 38.886 18.2309 38.2217 17.9539 37.7592C17.8154 37.528 17.7086 37.3473 17.6369 37.2252C17.601 37.1641 17.5739 37.1177 17.556 37.0869L17.5361 37.0526L17.5314 37.0445L17.5304 37.0428L17.5304 37.0428L17.5303 37.0427L17.5302 37.0425Z" stroke="#FEFEFE" stroke-width="3"/>
<path d="M41.9079 34.0425L41.9083 34.0417L41.9115 34.0361L41.9262 34.011C41.9395 33.9882 41.9599 33.9533 41.9872 33.9071C42.0417 33.8147 42.1237 33.677 42.231 33.4996C42.4458 33.1448 42.7618 32.6318 43.163 32.006C43.9663 30.7527 45.1062 29.0545 46.4541 27.2704C47.8047 25.4827 49.3471 23.6316 50.9534 22.0609C51.8402 21.1938 52.7223 20.4361 53.5801 19.8255C53.4802 20.8737 53.2652 22.0165 52.9576 23.218C52.4005 25.3945 51.5686 27.6558 50.6957 29.7193C49.8246 31.7786 48.9238 33.615 48.2401 34.9373C47.8987 35.5976 47.6125 36.1278 47.4125 36.4912C47.3126 36.6728 47.2343 36.8127 47.1815 36.9061C47.1552 36.9528 47.1352 36.988 47.1221 37.0109L47.1077 37.0361L47.1045 37.0417L47.104 37.0425L47.1039 37.0427L47.1038 37.0428L47.1038 37.0428L47.1028 37.0445L47.0981 37.0526L47.0782 37.0869C47.0603 37.1177 47.0332 37.1641 46.9973 37.2252C46.9256 37.3473 46.8188 37.528 46.6803 37.7592C46.4033 38.2217 45.9997 38.886 45.4966 39.688C44.4891 41.294 43.0876 43.4436 41.5061 45.6292C39.9197 47.8216 38.1771 50.0152 36.4889 51.7281C35.5155 52.7157 34.6295 53.4703 33.858 53.9852C33.9182 53.0596 34.1286 51.915 34.4973 50.5782C35.1366 48.2598 36.1651 45.6538 37.2705 43.1837C38.3725 40.7214 39.5334 38.4328 40.4205 36.7573C40.8635 35.9205 41.237 35.239 41.499 34.7678C41.63 34.5322 41.7331 34.3494 41.803 34.2262C41.8379 34.1646 41.8646 34.1179 41.8823 34.087L41.902 34.0526L41.9067 34.0445L41.9077 34.0428L41.9077 34.0428L41.9077 34.0427L41.9079 34.0425Z" stroke="#FEFEFE" stroke-width="3"/>
<path d="M14.9774 48.9773L14.9772 48.9772L14.9732 48.9749L14.9544 48.9639L14.875 48.9173C14.8041 48.8754 14.6981 48.8123 14.5612 48.7295C14.2874 48.5637 13.8908 48.3195 13.4067 48.0092C12.437 47.3876 11.1236 46.506 9.74456 45.4641C8.36197 44.4195 6.9362 43.231 5.73011 41.9975C5.2739 41.531 4.86032 41.0692 4.4971 40.6171C5.07027 40.7056 5.67695 40.8329 6.3091 40.9947C7.98033 41.4225 9.72256 42.0629 11.3185 42.738C12.9102 43.4113 14.3305 44.108 15.3537 44.637C15.8644 44.9011 16.2742 45.1224 16.5547 45.2767C16.6948 45.3538 16.8026 45.4141 16.8743 45.4545L16.9543 45.5L16.9732 45.5108L16.9772 45.5131L16.9774 45.5132L16.9776 45.5133L16.9778 45.5134L16.9778 45.5134L16.9788 45.514L16.9849 45.5175L17.011 45.5327L17.1174 45.595C17.2116 45.6503 17.3513 45.7329 17.5303 45.8401C17.8884 46.0545 18.403 46.3672 19.0246 46.7571C20.2697 47.5382 21.9352 48.6241 23.6273 49.8485C25.3262 51.0779 27.0172 52.422 28.3323 53.7181C28.8445 54.223 29.2672 54.6897 29.6041 55.1126C29.0693 55.0323 28.4538 54.8996 27.7605 54.7085C25.9805 54.2176 23.971 53.4252 22.0568 52.5686C20.1504 51.7154 18.3773 50.816 17.0783 50.1283C16.4298 49.7849 15.9017 49.4955 15.537 49.2927C15.3546 49.1913 15.2133 49.1116 15.1182 49.0576L15.0111 48.9966L14.9849 48.9816L14.9788 48.9781L14.9778 48.9775L14.9778 48.9775L14.9776 48.9774L14.9774 48.9773Z" stroke="#FEFEFE" stroke-width="3"/>
<path d="M47.6443 45.5132L47.6446 45.5131L47.6486 45.5108L47.6675 45.5L47.7475 45.4546C47.8192 45.4141 47.9269 45.3538 48.0671 45.2767C48.3475 45.1224 48.7573 44.9011 49.2681 44.6371C50.2912 44.108 51.7115 43.4114 53.3033 42.7381C54.8992 42.063 56.6414 41.4225 58.3127 40.9947C58.9448 40.8329 59.5515 40.7056 60.1247 40.6171C59.7614 41.0693 59.3479 41.531 58.8917 41.9976C57.6856 43.231 56.2598 44.4196 54.8772 45.4641C53.4982 46.506 52.1847 47.3877 51.215 48.0092C50.7309 48.3195 50.3344 48.5638 50.0606 48.7295C49.9237 48.8123 49.8176 48.8755 49.7467 48.9173L49.6674 48.9639L49.6486 48.9749L49.6445 48.9772L49.6443 48.9773L49.6442 48.9774L49.6439 48.9776L49.6439 48.9776L49.6429 48.9782L49.6369 48.9816L49.6107 48.9967L49.5036 49.0577C49.4085 49.1116 49.2671 49.1913 49.0848 49.2927C48.7201 49.4956 48.192 49.785 47.5434 50.1283C46.2444 50.816 44.4714 51.7154 42.5649 52.5686C40.6508 53.4253 38.6413 54.2177 36.8612 54.7085C36.1679 54.8997 35.5524 55.0323 35.0177 55.1126C35.3546 54.6897 35.7772 54.223 36.2895 53.7182C37.6046 52.422 39.2955 51.0779 40.9945 49.8486C42.6866 48.6242 44.352 47.5383 45.5971 46.7572C46.2187 46.3672 46.7334 46.0546 47.0915 45.8401C47.2704 45.7329 47.4101 45.6503 47.5044 45.595L47.6108 45.5327L47.6369 45.5176L47.6429 45.5141L47.6439 45.5135L47.6439 45.5135L47.6442 45.5133L47.6443 45.5132Z" stroke="#FEFEFE" stroke-width="3"/>
<path d="M19.9105 59.8141L19.9082 59.8147L19.8942 59.8184L19.8326 59.8344C19.7771 59.8487 19.6931 59.87 19.5837 59.8969C19.3649 59.9507 19.0448 60.0268 18.6476 60.1137C17.8514 60.2879 16.7539 60.5037 15.545 60.6721C14.3315 60.8411 13.0339 60.9582 11.8304 60.9447C11.8293 60.9447 11.8283 60.9447 11.8272 60.9447C11.8281 60.9441 11.829 60.9436 11.8299 60.9431C12.8655 60.3296 14.0478 59.7822 15.1832 59.3219C16.3144 58.8632 17.3728 58.5014 18.1494 58.2542C18.5368 58.1308 18.852 58.0367 19.0685 57.9738C19.1766 57.9425 19.26 57.9189 19.3153 57.9036L19.3765 57.8866L19.3906 57.8828L19.3929 57.8822L19.3929 57.8822L19.3933 57.8821L19.3934 57.8821L19.3935 57.882L19.3937 57.882L19.3981 57.8808L19.4182 57.8755L19.5018 57.8536C19.5763 57.8342 19.6874 57.8057 19.8306 57.7697C20.1173 57.6978 20.5323 57.5965 21.04 57.4803C22.0575 57.2473 23.4373 56.9566 24.8982 56.7224C26.3578 56.4883 27.8566 56.3174 29.139 56.306C28.0227 56.9373 26.6393 57.5387 25.2582 58.0658C23.8759 58.5934 22.5356 59.0316 21.5379 59.3386C21.0401 59.4918 20.6301 59.6115 20.3459 59.6925C20.2038 59.7331 20.0933 59.7639 20.0192 59.7843L19.9358 59.8072L19.9158 59.8126L19.9113 59.8138L19.9112 59.8139L19.911 59.8139L19.9109 59.8139L19.9105 59.814L19.9105 59.8141Z" stroke="#FEFEFE" stroke-width="3"/>
<path d="M45.3893 57.8822L45.3916 57.8829L45.4057 57.8867L45.4669 57.9036C45.5222 57.919 45.6056 57.9425 45.7137 57.9739C45.9302 58.0367 46.2454 58.1309 46.6328 58.2542C47.4094 58.5014 48.4678 58.8633 49.599 59.3219C50.7344 59.7823 51.9167 60.3297 52.9523 60.9431C52.9532 60.9436 52.9541 60.9442 52.955 60.9447C52.9539 60.9447 52.9529 60.9448 52.9518 60.9448C51.7483 60.9583 50.4507 60.8411 49.2372 60.6721C48.0283 60.5037 46.9308 60.2879 46.1346 60.1137C45.7374 60.0268 45.4173 59.9507 45.1985 59.8969C45.0891 59.87 45.0051 59.8487 44.9496 59.8344L44.888 59.8184L44.874 59.8147L44.8717 59.8141L44.8717 59.8141L44.8713 59.814L44.8712 59.8139L44.871 59.8139L44.8709 59.8139L44.8664 59.8127L44.8464 59.8072L44.763 59.7844C44.6889 59.7639 44.5784 59.7331 44.4363 59.6926C44.1521 59.6115 43.7421 59.4918 43.2443 59.3386C42.2466 59.0317 40.9063 58.5934 39.524 58.0658C38.1429 57.5387 36.7595 56.9374 35.6432 56.306C36.9256 56.3174 38.4244 56.4883 39.884 56.7224C41.3449 56.9567 42.7247 57.2473 43.7422 57.4803C44.2499 57.5965 44.6649 57.6979 44.9516 57.7698C45.0948 57.8057 45.2059 57.8343 45.2804 57.8536L45.364 57.8755L45.3841 57.8808L45.3885 57.882L45.3887 57.8821L45.3888 57.8821L45.3889 57.8821L45.3893 57.8822L45.3893 57.8822Z" stroke="#FEFEFE" stroke-width="3"/>
<mask id="path-8-inside-1_45_573" fill="white">
<path d="M31.17 54.5H33.17V77.5L32.17 76.5L31.17 77.5V54.5Z"/>
</mask>
<path d="M31.17 54.5V51.5H28.17V54.5H31.17ZM33.17 54.5H36.17V51.5H33.17V54.5ZM33.17 77.5L31.0487 79.6213L36.17 84.7426V77.5H33.17ZM31.17 77.5H28.17V84.7426L33.2913 79.6213L31.17 77.5ZM32.17 76.5L34.2913 74.3787L32.17 72.2574L30.0487 74.3787L32.17 76.5ZM31.17 57.5H33.17V51.5H31.17V57.5ZM30.17 54.5V77.5H36.17V54.5H30.17ZM34.17 77.5V54.5H28.17V77.5H34.17ZM35.2913 75.3787L34.2913 74.3787L30.0487 78.6213L31.0487 79.6213L35.2913 75.3787ZM30.0487 74.3787L29.0487 75.3787L33.2913 79.6213L34.2913 78.6213L30.0487 74.3787Z" fill="#FEFEFE" mask="url(#path-8-inside-1_45_573)"/>
</svg>
